<?xml version="1.0" encoding="UTF-8"?>
<!DOCTYPE svg PUBLIC "-//W3C//DTD SVG 1.1//EN" "http://www.w3.org/Graphics/SVG/1.1/DTD/svg11.dtd">
<!-- Creator: CorelDRAW X5 -->
<svg xmlns="http://www.w3.org/2000/svg" xml:space="preserve" width="210mm" height="51.838mm" style="shape-rendering:geometricPrecision; text-rendering:geometricPrecision; image-rendering:optimizeQuality; fill-rule:evenodd; clip-rule:evenodd"
viewBox="0 0 21000 5184"
 xmlns:xlink="http://www.w3.org/1999/xlink">
 <defs>
  <style type="text/css">
   <![CDATA[
    .fil6 {fill:#255397;fill-rule:nonzero}
    .fil0 {fill:#DA4C7C;fill-rule:nonzero}
    .fil2 {fill:#EA9233;fill-rule:nonzero}
    .fil1 {fill:#F1B544;fill-rule:nonzero}
    .fil3 {fill:url(#id0);fill-rule:nonzero}
    .fil5 {fill:url(#id1);fill-rule:nonzero}
    .fil4 {fill:url(#id2);fill-rule:nonzero}
   ]]>
  </style>
  <linearGradient id="id0" gradientUnits="userSpaceOnUse" x1="-4975.01" y1="3470.58" x2="-1778.56" y2="3470.58">
   <stop offset="0" style="stop-color:#333765"/>
   <stop offset="0.180392" style="stop-color:#613370"/>
   <stop offset="0.211765" style="stop-color:#613370"/>
   <stop offset="0.270588" style="stop-color:#613370"/>
   <stop offset="1" style="stop-color:#A8477B"/>
  </linearGradient>
  <linearGradient id="id1" gradientUnits="userSpaceOnUse" x1="-4943.05" y1="5317.1" x2="-1810.52" y2="5317.1">
   <stop offset="0" style="stop-color:#AB2F42"/>
   <stop offset="0.341176" style="stop-color:#C1314F"/>
   <stop offset="1" style="stop-color:#D8335C"/>
  </linearGradient>
  <linearGradient id="id2" gradientUnits="userSpaceOnUse" x1="-3376.78" y1="74.24" x2="-3376.78" y2="3174.99">
   <stop offset="0" style="stop-color:#DF5E34"/>
   <stop offset="0.101961" style="stop-color:#DF5E34"/>
   <stop offset="0.2" style="stop-color:#DF5E34"/>
   <stop offset="1" style="stop-color:#D52D2C"/>
  </linearGradient>
 </defs>
 <g id="图层_x0020_1">
  <metadata id="CorelCorpID_0Corel-Layer"/>
  <polygon class="fil0" points="-8022,5229 -8022,5404 -4975,7162 -4975,3471 "/>
  <polygon class="fil1" points="-8022,1537 -4975,-222 -8022,-1980 "/>
  <polygon class="fil2" points="-8022,1536 -8022,1710 -4974,3471 -4974,-221 "/>
  <polygon class="fil3" points="-1779,5318 -1779,1623 -1779,1623 -4975,3470 "/>
  <polygon class="fil4" points="-4975,-221 -4975,3470 -1779,1623 -4975,-221 "/>
  <polygon class="fil5" points="-4975,7164 -4974,7164 -1779,5318 -4975,3470 -4975,3470 "/>
  <path class="fil6" d="M16988 5615l-1362 -2019 1374 -1919 -479 0c-278,3 -690,83 -961,482 -141,209 -472,720 -476,721l-15 21 -781 -1224 -1221 0 1402 1979 -1361 1959 1130 0 831 -1194 821 1194 1098 0z"/>
  <path class="fil6" d="M18390 5615l0 -4044c-110,28 -580,168 -834,433 -107,113 -163,244 -163,348l0 3262 996 0z"/>
  <path class="fil6" d="M23457 5440c193,175 424,242 768,242 363,0 622,-81 851,-211l0 -680c-154,69 -323,110 -512,110l-2 0c-134,0 -245,-35 -315,-113 -75,-79 -101,-192 -101,-332l0 -1954 854 0 460 -824 -1313 0 0 -1491c-389,137 -715,356 -830,492 -121,147 -164,270 -164,505l0 3338c0,460 115,745 306,919z"/>
  <path class="fil6" d="M27323 1634c-552,-2 -1067,218 -1167,292 -80,61 -131,142 -131,253l0 528c363,-124 841,-197 1130,-197 298,0 547,33 714,169 189,156 213,417 213,540l-5 71 0 19 -17 -3c0,0 -440,-49 -901,-49 -460,0 -865,85 -1143,304 -243,188 -435,550 -435,931 0,434 194,741 415,922 229,188 655,277 1016,277 386,0 647,-64 813,-131 161,-62 228,-124 228,-124l24 -24 0 205 944 0 0 -2295c0,-534 -94,-970 -372,-1253 -367,-373 -795,-435 -1327,-435zm-519 3271l0 0c-159,-99 -223,-275 -223,-436 0,-110 31,-214 77,-288 113,-176 333,-286 701,-294l84 -2c408,0 634,78 634,78l0 325c0,212 -92,498 -396,631 -149,63 -305,97 -453,97 -155,0 -302,-37 -425,-111z"/>
  <path class="fil6" d="M20733 1634c-552,-2 -1065,218 -1165,292 -80,61 -134,142 -134,253l0 528c364,-124 841,-197 1132,-197 297,0 548,33 713,169 188,156 213,414 213,540l-2 72 -2 18 -15 -3c0,0 -440,-49 -901,-49 -462,0 -865,85 -1146,304 -243,188 -434,550 -434,931 0,434 192,741 415,922 229,188 657,277 1016,277 386,0 647,-64 810,-131 166,-62 231,-124 231,-124l27 -24 0 204 944 0 0 -2293c0,-534 -96,-970 -371,-1253 -373,-373 -798,-435 -1330,-435zm-519 3271l0 0c-159,-99 -223,-275 -223,-436 0,-110 30,-214 79,-288 111,-176 332,-286 698,-294l84 -2c408,0 637,78 637,78l0 325c0,212 -92,498 -398,631 -147,63 -307,97 -455,97 -150,0 -297,-37 -423,-111z"/>
  <path class="fil6" d="M11027 1634c-552,-2 -1068,218 -1165,292 -78,61 -133,142 -133,253l0 528c364,-124 843,-197 1132,-197 297,0 548,33 715,169 189,156 211,414 211,540l-2 72 -2 18 -16 -3c0,0 -437,-49 -903,-49 -460,0 -862,85 -1141,304 -243,188 -436,550 -434,931 0,434 192,741 415,922 229,188 655,277 1016,277 386,0 644,-64 811,-131 162,-62 227,-124 227,-124l27 -24 0 204 944 0 0 -2293c1,-534 -96,-970 -372,-1253 -370,-373 -795,-435 -1329,-435zm-517 3271l0 0c-162,-99 -223,-275 -223,-436 0,-110 28,-214 75,-288 113,-176 334,-286 703,-294l83 -2c409,0 636,78 636,78l0 325c0,212 -92,498 -396,631 -147,63 -307,97 -455,97 -155,0 -300,-37 -423,-111z"/>
  <polygon class="fil6" points="1400,3645 104,1707 1362,1707 2060,2818 2763,1707 3992,1707 2696,3634 4049,5651 2793,5651 2039,4462 1277,5651 47,5651 "/>
  <polygon class="fil6" points="4460,1707 5553,1707 5553,4695 7462,4695 7462,5651 4460,5651 "/>
 </g>
</svg>
